<svg width="24" height="20" viewBox="0 0 24 20" fill="none" xmlns="http://www.w3.org/2000/svg">
<path fill-rule="evenodd" clip-rule="evenodd" d="M0 1.42859H24V18.5736C24 19.3614 23.1739 20 22.1566 20H1.84339C0.825313 20 0 19.3607 0 18.5736V1.42859Z" fill="#FFDD95"/>
<path fill-rule="evenodd" clip-rule="evenodd" d="M0 1.42859H24V6.42859H0V1.42859Z" fill="#F5413E"/>
<path d="M8.30771 0H7.84617C7.33637 0 6.9231 0.319797 6.9231 0.714286V3.21429C6.9231 3.60877 7.33637 3.92857 7.84617 3.92857H8.30771C8.81751 3.92857 9.23079 3.60877 9.23079 3.21429V0.714286C9.23079 0.319797 8.81751 0 8.30771 0Z" fill="#5B68C0"/>
<path d="M16.6153 0H16.1538C15.644 0 15.2307 0.319797 15.2307 0.714286V3.21429C15.2307 3.60877 15.644 3.92857 16.1538 3.92857H16.6153C17.1251 3.92857 17.5384 3.60877 17.5384 3.21429V0.714286C17.5384 0.319797 17.1251 0 16.6153 0Z" fill="#5B68C0"/>
<path d="M8.0096 13.5168C7.63442 13.2497 7.05046 13.2686 6.7053 13.5589C6.36014 13.8492 6.38448 14.3011 6.75966 14.5682L10.155 16.9853C10.577 17.2857 11.2471 17.2189 11.5568 16.8454L17.5071 9.67148C17.7825 9.33948 17.6579 8.89762 17.2289 8.68454C16.7999 8.47146 16.2288 8.56786 15.9535 8.89985L10.5965 15.3584L8.0096 13.5168Z" fill="#23BA8E"/>
</svg>
