<svg width="24" height="19" viewBox="0 0 24 19" fill="none" xmlns="http://www.w3.org/2000/svg">
<path d="M12.7265 0.845572C12.596 0.966854 12.4924 1.11097 12.4217 1.26965C12.3511 1.42833 12.3147 1.59846 12.3147 1.77028C12.3147 1.9421 12.3511 2.11222 12.4217 2.2709C12.4924 2.42959 12.596 2.5737 12.7265 2.69499L18.7346 8.29654L1.58206 8.29654C1.2107 8.29654 0.854557 8.43408 0.591969 8.6789C0.329378 8.92373 0.181856 9.25578 0.181856 9.60201C0.181856 9.94824 0.329378 10.2803 0.591969 10.5251C0.854557 10.7699 1.2107 10.9075 1.58206 10.9075H18.7346L12.7265 16.5112C12.4635 16.7565 12.3157 17.0891 12.3157 17.4359C12.3157 17.7828 12.4635 18.1154 12.7265 18.3606C12.9896 18.6059 13.3463 18.7437 13.7183 18.7437C14.0903 18.7437 14.4471 18.6059 14.7101 18.3606L23.1114 10.5278C23.2419 10.4065 23.3455 10.2624 23.4161 10.1037C23.4868 9.94504 23.5232 9.77492 23.5232 9.6031C23.5232 9.43128 23.4868 9.26115 23.4161 9.10247C23.3455 8.94379 23.2419 8.79967 23.1114 8.67839L14.7101 0.845572C14.5801 0.723866 14.4255 0.6273 14.2553 0.561409C14.0851 0.49552 13.9026 0.461601 13.7183 0.461601C13.534 0.461601 13.3516 0.49552 13.1814 0.561409C13.0112 0.6273 12.8566 0.723866 12.7265 0.845572Z" fill="white"/>
</svg>
