<svg width="20" height="21" viewBox="0 0 20 21" fill="none" xmlns="http://www.w3.org/2000/svg">
<path id="Vector" d="M17.9768 9.32233L9.13939 17.448C7.44106 19.0096 4.68993 19.0096 2.99161 17.448C1.29329 15.8865 1.29329 13.3569 2.99161 11.7954L12.5975 2.96308C13.107 2.49459 13.7981 2.23139 14.5187 2.23139C15.2393 2.23139 15.9303 2.49459 16.4399 2.96308C16.9494 3.43158 17.2357 4.06699 17.2357 4.72954C17.2357 5.39209 16.9494 6.0275 16.4399 6.496L8.37091 13.9151C7.94825 14.3037 7.25663 14.3037 6.83397 13.9151C6.41131 13.5265 6.41131 12.8906 6.83397 12.502L14.1345 5.78942L12.9817 4.72954L5.68126 11.4421C5.17173 11.9106 4.88548 12.546 4.88548 13.2085C4.88548 13.8711 5.17173 14.5065 5.68126 14.975C6.19079 15.4435 6.88186 15.7067 7.60244 15.7067C8.32302 15.7067 9.01409 15.4435 9.52362 14.975L17.5926 7.55587C19.2909 5.99433 19.2909 3.46476 17.5926 1.90321C15.8943 0.34166 13.1431 0.341661 11.4448 1.90321L1.8389 10.7355C-0.497254 12.8835 -0.497254 16.3599 1.8389 18.5079C4.17506 20.6559 7.95594 20.6559 10.2921 18.5079L19.1295 10.3822L17.9768 9.32233Z" fill="white"/>
</svg>
