<svg width="24" height="19" viewBox="0 0 24 19" fill="none" xmlns="http://www.w3.org/2000/svg">
<path id="Vector" d="M12.7263 0.845572C12.5957 0.966854 12.4922 1.11097 12.4215 1.26965C12.3508 1.42833 12.3144 1.59846 12.3144 1.77028C12.3144 1.9421 12.3508 2.11222 12.4215 2.2709C12.4922 2.42959 12.5957 2.5737 12.7263 2.69499L18.7343 8.29654L1.58182 8.29654C1.21046 8.29654 0.854313 8.43408 0.591724 8.6789C0.329134 8.92373 0.181612 9.25578 0.181612 9.60201C0.181612 9.94824 0.329134 10.2803 0.591724 10.5251C0.854313 10.7699 1.21046 10.9075 1.58182 10.9075H18.7343L12.7263 16.5112C12.4632 16.7565 12.3155 17.0891 12.3155 17.4359C12.3155 17.7828 12.4632 18.1154 12.7263 18.3606C12.9893 18.6059 13.3461 18.7437 13.7181 18.7437C14.0901 18.7437 14.4468 18.6059 14.7099 18.3606L23.1111 10.5278C23.2417 10.4065 23.3452 10.2624 23.4159 10.1037C23.4866 9.94504 23.5229 9.77492 23.5229 9.6031C23.5229 9.43128 23.4866 9.26115 23.4159 9.10247C23.3452 8.94379 23.2417 8.79967 23.1111 8.67839L14.7099 0.845572C14.5798 0.723866 14.4252 0.6273 14.255 0.561409C14.0848 0.49552 13.9024 0.461601 13.7181 0.461601C13.5338 0.461601 13.3513 0.49552 13.1811 0.561409C13.0109 0.6273 12.8564 0.723866 12.7263 0.845572Z" fill="white"/>
</svg>
